{"title":"Mama Is Boos! 1986 DVDrip Dutch Klam","uid":6795562,"size":1895882879,"categoryP":"video","categoryS":"movies","magnet":"?xt=urn:btih:8bd08a5c512c7edefb6f3886bd108acf289ee65e&amp;dn=Mama+Is+Boos%21+1986+DVDrip+Dutch+Klam&amp;tr=udp%3A%2F%2Ftracker.openbittorrent.com%3A80&amp;tr=udp%3A%2F%2Fopen.demonii.com%3A1337&amp;tr=udp%3A%2F%2Ftracker.coppersurfer.tk%3A6969&amp;tr=udp%3A%2F%2Fexodus.desync.com%3A6969","seeders":4,"leechers":1,"uploader":"Klambake","files":-1,"time":1320435411,"description":"Peter Faber, Geert de Jong en Adelheid Roosen\n\nVervolg op Schatjes. Terreur in een modern gezinsleven. De ouders (Faber en De Jong) zitten tijdelijk zonder kinderen en gaan nu elkaar te lijf. Met allerhande attributen: van machinegeweer tot elektrische zaag. De familiale guerrilla (ouders vs kinderen) heeft dus plaats gemaakt voor een continue echtelijke ruzie.\n\nDarlings(Shatjes)-cast are back. Only this time the trouble is not due to the kids but between the parents. Danny Gisbers finds out her husband cheats at their wedding-anniversery.\n\n------------------ Dutch Friends ------------------\nYou can find my Friends at: http://www.Film-Test.nl \n------ They got my dutch subs ----- and more ------\n\nGeneral:\n\nComplete name                    : Mama is Boos\\Mama is Boos.avi\nFormat                           : AVI\nFormat/Info                      : Audio Video Interleave\nFile size                        : 1.77 GiB\nDuration                         : 1h 37mn\nOverall bit rate                 : 2 605 Kbps\n\nVideo:\n\nFormat                           : MPEG-4 Visual\nFormat profile                   : Simple@L3\nFormat settings, BVOP            : No\nFormat settings, QPel            : No\nFormat settings, GMC             : No warppoints\nFormat settings, Matrix          : Default (H.263)\nCodec ID                         : XVID\nCodec ID/Hint                    : XviD\nDuration                         : 1h 37mn\nBit rate                         : 1 978 Kbps\nWidth                            : 624 pixels\nHeight                           : 356 pixels\nDisplay aspect ratio             : 16:9\nFrame rate                       : 25.000 fps\nColor space                      : YUV\nChroma subsampling               : 4:2:0\nBit depth                        : 8 bits\nScan type                        : Progressive\nCompression mode                 : Lossy\nBits/(Pixel*Frame)               : 0.356\nStream size                      : 1.34 GiB (76%)\nWriting library                  : XviD 1.1.2 (UTC 2006-11-01)\n\nAudio 1:\n\nFormat                           : MPEG Audio\nFormat version                   : Version 1\nFormat profile                   : Layer 3\nMode                             : Joint stereo\nMode extension                   : MS Stereo\nCodec ID                         : 55\nCodec ID/Hint                    : MP3\nDuration                         : 1h 37mn\nBit rate mode                    : Constant\nBit rate                         : 160 Kbps\nChannel(s)                       : 2 channels\nSampling rate                    : 48.0 KHz\nCompression mode                 : Lossy\nStream size                      : 111 MiB (6%)\nAlignment                        : Split accross interleaves\nInterleave, duration             : 24 ms (0.60 video frame)\nInterleave, preload duration     : 522 ms\n\nAudio 2:\n\nFormat                           : AC-3\nFormat/Info                      : Audio Coding 3\nMode extension                   : CM (complete main)\nCodec ID                         : 2000\nDuration                         : 1h 37mn\nBit rate mode                    : Constant\nBit rate                         : 448 Kbps\nChannel(s)                       : 6 channels\nChannel positions                : Front: L C R, Side: L R, LFE\nSampling rate                    : 48.0 KHz\nBit depth                        : 16 bits\nCompression mode                 : Lossy\nStream size                      : 311 MiB (17%)\nAlignment                        : Aligned on interleaves\nInterleave, duration             : 32 ms (0.80 video frame)\nInterleave, preload duration     : 576 ms\n\n\n","torrent":{"xt":"urn:btih:8bd08a5c512c7edefb6f3886bd108acf289ee65e","amp;dn":"Mama+Is+Boos%21+1986+DVDrip+Dutch+Klam","amp;tr":["udp%3A%2F%2Ftracker.openbittorrent.com%3A80","udp%3A%2F%2Fopen.demonii.com%3A1337","udp%3A%2F%2Ftracker.coppersurfer.tk%3A6969","udp%3A%2F%2Fexodus.desync.com%3A6969"],"infoHash":"8bd08a5c512c7edefb6f3886bd108acf289ee65e","infoHashBuffer":{"type":"Buffer","data":[139,208,138,92,81,44,126,222,251,111,56,134,189,16,138,207,40,158,230,94]},"announce":[],"urlList":[]}}